<svg xmlns="http://www.w3.org/2000/svg" id="Layer_2" data-name="Layer 2" viewBox="0 0 384 384" width="50" height="50" strokewidth="0">
    <g id="Layer_1-2" data-name="Layer 1">
        <g>
        <path class="cls-5" fill="transparent" d="M.07,192C.07,129.02.09,66.04,0,3.06,0,.5.5,0,3.06,0c125.96.08,251.91.08,377.87,0,2.56,0,3.07.5,3.06,3.06-.08,125.96-.08,251.91,0,377.87,0,2.56-.5,3.07-3.06,3.06-125.96-.08-251.91-.08-377.87,0-2.56,0-3.07-.5-3.07-3.06.09-62.98.07-125.96.07-188.94ZM34.6,76.53c0,3.4,0,6.8,0,10.2,0,4.08,0,8.17,0,12.25v126.92c0,4.08,0,8.17,0,12.25,0,3.4,0,6.8,0,10.2,0,4.08,0,8.17,0,12.25,0,14.69,0,29.38,0,44.07-1.99.03-3.98.04-5.96.08-5.85.12-8.88,3.14-8.98,9.04-.06,3.73-.02,7.46-.01,11.19.02,7.28,2.88,10.17,10.11,10.2,9.07.04,18.15.07,27.22.1.01,6.48.02,12.96.04,19.44.01,7.54,2.85,10.46,10.29,10.43,13.45-.04,26.91-.11,40.36-.21,6.84-.05,9.51-2.7,9.58-9.52.07-6.73.06-13.45.09-20.18,29.54-.02,59.07-.06,88.61-.05,20.44,0,40.87.06,61.31.09.01,6.48.02,12.96.04,19.44.01,7.54,2.85,10.46,10.29,10.43,13.45-.04,26.91-.11,40.36-.21,6.84-.05,9.51-2.7,9.58-9.52.07-6.73.06-13.45.09-20.18,9.45-.02,18.9,0,28.35-.08,5.83-.05,8.77-2.85,8.72-8.09.56-4.83.4-9.68.14-14.5-.26-4.93-3.01-7.35-7.95-7.47-3.97-.09-7.95-.06-11.92-.07-.08-2.39-.17-4.77-.25-7.16-.02-14.94-.05-29.88-.07-44.81,1.36-.05,2.73-.03,4.08-.16,4.9-.47,7.08-2.58,7.72-7.37.16-.33.45-.66.45-.99,0-8.76.37-15.01-11.82-14.18-.02-14.92-.04-29.83-.05-44.75,4.32-.01,8.89-.14,10.82-4.76,1.9-4.55,1.89-9.51-.24-14.1-2.05-4.41-6.33-3.56-10.1-3.7-.25,0-.49-.06-.74-.09-.01-2.4-.03-4.8-.04-7.21.03-7.1.15-14.19.05-21.29-.1-6.4-2.79-8.88-9.26-8.92-9.34-.06-18.67-.1-28.01-.16l-1.4-.33c-2.96,0-5.91,0-8.87,0-.47.11-.94.22-1.4.33-14.71.05-29.41.15-44.12.14-18.57,0-37.14-.09-55.71-.14-.47-.11-.93-.22-1.4-.33-2.96,0-5.91,0-8.87,0-.47.11-.94.22-1.4.33-8.24.04-16.49.08-24.73.12-4.9-.9-9.3-.42-12.14,4.39-.07-1.62-.2-3.23-.2-4.85-.01-21.43,0-42.85-.02-64.28,0-7.76-2.54-10.22-10.35-10.27-8.47-.06-16.94-.08-25.41-.22-3.79-.06-6.79,1.19-8.79,4.5-.13-.19-.31-.24-.52-.15,0-8.98.15-17.96-.03-26.93-.1-4.87-2.77-7.62-7.37-7.65-12.34-.09-24.68.04-37.02.09-4.43-1-8.91-.36-13.37-.42-6.79-.1-9.72,2.93-9.74,9.78-.03,11.59-.01,23.19-.02,34.78,0,4.08,0,8.17,0,12.25Z"/>
        <path class="cls-10" fill="#fec446" d="M102.67,54.78c2-3.31,5-4.56,8.79-4.5,8.47.14,16.94.16,25.41.22,7.81.05,10.34,2.52,10.35,10.27.02,21.43,0,42.85.02,64.28,0,1.62.13,3.23.2,4.85.01,9.8.09,19.6-.01,29.4-.02,2.41.73,3.27,3.18,3.23,2.69-.04,5.44-.57,8.09.41-2.61.06-5.23.34-7.82.12-3.13-.27-4.21.51-4.19,3.98.17,27.36.09,54.72.11,82.08,0,1.32-.43,2.76.61,3.94.05,17.41.09,34.81.14,52.22-.28.01-.55.02-.83.03-1.14-1.14-2.59-.65-3.9-.66-12.17-.04-24.34-.11-36.51.04-2.95.04-3.82-.82-3.78-3.78.16-11.92.08-23.84.04-35.77,0-1.32.44-2.75-.61-3.93-.04-.31-.08-.62-.12-.92-.02-.22-.06-.44-.13-.65,0-3.45,0-6.89,0-10.34.07-.21.11-.43.13-.65.04-.31.08-.62.12-.93,1.01-2.99,1.01-5.97,0-8.96-.04-.31-.08-.62-.12-.93-.02-.22-.06-.44-.13-.65,0-3.45,0-6.89,0-10.34.07-.21.11-.43.13-.65.04-.31.08-.62.12-.93,1.06-1.18.61-2.62.61-3.94.02-39.27.02-78.54,0-117.81,0-1.32.45-2.76-.61-3.94-.04-.31-.08-.62-.12-.92-.02-.22-.06-.44-.13-.65,0-3.44,0-6.89,0-10.34.07-.21.11-.43.13-.65.04-.31.08-.62.12-.93,1.01-2.99,1.01-5.97,0-8.96-.04-.31-.08-.62-.12-.93-.02-.22-.06-.44-.13-.65v-10.34c.07-.21.11-.43.13-.65.04-.31.08-.62.12-.93,1.33-2.87.25-5.94.72-8.88ZM119.05,177.76c0,10.71-.01,21.42,0,32.14,0,4.54,2.24,7.26,5.77,7.14,3.4-.11,5.44-2.71,5.44-7.1.02-21.42.02-42.85,0-64.27,0-4.55-2.24-7.26-5.77-7.14-3.4.11-5.43,2.71-5.44,7.1-.02,10.71,0,21.42,0,32.14Z"/>
        <path class="cls-2" fill="#f0e7db" d="M344.98,185.61c.02,14.92.04,29.83.05,44.75-4.98.05-9.96.12-14.95.13-21.68.06-43.36.1-65.04.15-.15-.27-.31-.55-.46-.82-.04-6.34-.17-12.68-.08-19.01.03-2.25-.65-3.01-2.96-2.99-10.44.1-20.88.1-31.33,0-2.27-.02-3.02.67-2.99,2.96.09,6.58-.04,13.17-.08,19.76-.15.02-.3.07-.43.14-17.56-.06-35.12-.2-52.67-.1-3.2.02-4.31-.7-4.25-4.11.21-12.2.22-24.41,0-36.62-.06-3.54,1.07-4.31,4.42-4.31,56.92.1,113.84.07,170.77.08Z"/>
        <path class="cls-2" fill="#d88645" d="M146.7,305.31c.28-.01.55-.02.83-.03,9.74-.01,19.47-.03,29.21-.04,3.94,0,7.88,0,11.82,0,3.54,0,7.08,0,10.63,0,3.94,0,7.88,0,11.82,0h69.74c3.94,0,7.88,0,11.82,0,3.54,0,7.08,0,10.63,0,3.94,0,7.88-.01,11.82-.02,9.47-.02,18.94-.05,28.41-.07.5-.04,1-.08,1.5-.12,3.98.02,7.95-.02,11.93.08,4.94.12,7.69,2.54,7.95,7.47.26,4.82.42,9.67-.14,14.5-73.65,0-147.29,0-220.94-.01-31.15,0-62.31,0-93.46,0-4.98,0-7.52-2.54-7.54-7.49-.02-4.74-.03-9.47-.04-14.21,19.7,0,39.39-.01,59.09-.02,14.98-.01,29.96-.03,44.93-.04Z"/>
        <path class="cls-9" fill="#accfe1" d="M344.98,185.61c-56.92,0-113.84.02-170.77-.08-3.35,0-4.48.77-4.42,4.31.22,12.2.21,24.41,0,36.62-.06,3.41,1.05,4.13,4.25,4.11,17.56-.09,35.12.05,52.68.1.02,3.98-.03,7.97.08,11.95.06,2.02-.54,2.91-2.73,2.9-18.31-.06-36.62.24-54.92-.18-6.74-.15-8.55-1.76-9.31-7.81-.2-1.61-.38-3.2-.38-4.8-.02-23.17-.01-46.33-.02-69.5.28-.1.57-.2.85-.3,7.92.05,15.83.1,23.75.15,4.05,0,8.11-.01,12.16-.02,33.1,0,66.2,0,99.3,0,4.04,0,8.07.02,12.11.03,11.95-.05,23.9-.1,35.85-.14.41,0,.82,0,1.23,0,.25.03.49.09.74.1,3.78.14,8.05-.72,10.1,3.7,2.13,4.59,2.14,9.55.24,14.1-1.93,4.62-6.51,4.75-10.82,4.76Z"/>
        <path class="cls-15" fill="#c27940" d="M42.68,305.37c.01,4.74.02,9.47.04,14.21.02,4.95,2.56,7.49,7.54,7.49,31.15,0,62.31,0,93.46,0,73.65,0,147.29,0,220.94.01.05,5.24-2.89,8.04-8.72,8.09-9.45.08-18.9.06-28.35.08-20.11.01-40.23.02-60.34.04-20.44-.03-40.87-.09-61.31-.09-29.54,0-59.07.03-88.61.05-20.11.01-40.23.02-60.34.04-9.07-.03-18.15-.06-27.22-.1-7.23-.03-10.09-2.92-10.11-10.2,0-3.73-.05-7.46.01-11.19.09-5.9,3.12-8.92,8.98-9.04,1.99-.04,3.98-.06,5.96-.08,2.6,1.28,5.39.39,8.08.69Z"/>
        <path class="cls-14" fill="#dc523d" d="M34.6,225.9c0-42.31,0-84.61,0-126.92,7.69-.03,15.39-.07,23.08-.1,0,42.37,0,84.74,0,127.12-7.69-.03-15.39-.07-23.08-.1Z"/>
        <path class="cls-13" fill="#fab058" d="M195.96,125.39c18.57.05,37.14.14,55.71.14,14.71,0,29.41-.09,44.12-.14-.04,9.86-.08,19.71-.12,29.57-33.19,0-66.38,0-99.57,0-.04-9.85-.08-19.71-.13-29.56Z"/>
        <path class="cls-1" fill="#ed5e41" d="M101.94,63.66c-.04.31-.08.62-.12.92-.23.1-.47.19-.7.29-14.26-.33-28.53-.32-42.79,0-.22-.17-.43-.33-.65-.5.01-14.75.03-29.5.04-44.24,12.34-.04,24.68-.17,37.02-.09,4.6.03,7.27,2.78,7.37,7.65.18,8.97.04,17.95.03,26.93-.61,3-.3,6.02-.2,9.04Z"/>
        <path class="cls-16" d="M267.24,335.29c20.12-.01,40.23-.02,60.34-.04-.03,6.73-.02,13.45-.09,20.18-.07,6.82-2.74,9.47-9.58,9.52-13.45.1-26.91.17-40.36.21-7.44.02-10.27-2.89-10.29-10.43-.01-6.48-.02-12.96-.04-19.44Z"/>
        <path class="cls-16" d="M56.98,335.29c20.12-.01,40.23-.02,60.34-.04-.03,6.73-.02,13.45-.09,20.18-.07,6.82-2.74,9.47-9.58,9.52-13.45.1-26.91.17-40.36.21-7.44.02-10.27-2.89-10.29-10.43-.01-6.48-.02-12.96-.04-19.44Z"/>
        <path class="cls-14" fill="#dc523d" d="M42.68,305.37c-2.69-.31-5.48.59-8.08-.69,0-14.69,0-29.38,0-44.07,7.69-.03,15.39-.07,23.08-.1,0,9.96-.01,19.93.02,29.89,0,3.06,2.6,6.54,5.29,6.65,3.72.15,7.35.96,11.11.88,9.21-.2,18.43-.06,27.65-.06v7.47c-19.68,0-39.38.01-59.08.02Z"/>
        <path class="cls-12" fill="#8dc540" d="M344.6,253.06c.02,14.94.05,29.88.07,44.82-9.83,0-19.67-.01-29.5-.02-.14-.06-.28-.06-.42-.02,0-14.94-.02-29.88-.03-44.81,9.96.01,19.92.02,29.87.03Z"/>
        <path class="cls-9" fill="#accfe1" d="M265.05,230.63c21.68-.05,43.36-.09,65.04-.15,4.98-.01,9.96-.08,14.95-.13,12.19-.83,11.83,5.42,11.82,14.18,0,.33-.3.66-.45.99-11.94-.01-23.88-.03-35.82-.04-17.29,0-34.57-.06-51.86.06-2.87.02-4.05-.68-3.82-3.73.27-3.71.11-7.46.14-11.18Z"/>
        <path class="cls-13" fill="#fab058" d="M307.46,125.39c9.34.05,18.67.1,28.01.16,6.47.04,9.17,2.52,9.26,8.92.11,7.09-.02,14.19-.05,21.29-12.37-.02-24.74-.05-37.12-.07-.04-10.1-.07-20.19-.11-30.29Z"/>
        <path class="cls-14" fill="#dc523d" d="M57.72,20.13c-.01,14.75-.03,29.5-.04,44.24-7.69-.03-15.39-.07-23.08-.1,0-11.59,0-23.19.02-34.78.02-6.85,2.94-9.88,9.74-9.78,4.45.07,8.94-.58,13.37.42Z"/>
        <path class="cls-13" fill="#fab058" d="M159.57,125.52c8.24-.04,16.49-.08,24.73-.12-.04,10.1-.07,20.19-.11,30.29-4.6,0-9.2.1-13.8,0-7.9-.17-10.74-2.93-10.89-10.78-.12-6.46.03-12.92.07-19.39Z"/>
        <path class="cls-6" fill="#96bfce" d="M265.05,230.63c-.03,3.73.13,7.47-.14,11.18-.23,3.06.95,3.75,3.82,3.73,17.28-.12,34.57-.06,51.86-.06,11.94,0,23.88.02,35.82.04-.64,4.79-2.82,6.9-7.72,7.37-1.35.13-2.72.11-4.08.16-9.96-.01-19.92-.02-29.88-.03-3.74.01-7.49.03-11.23.04-3.74-.01-7.48-.03-11.22-.04-3.75,0-7.5,0-11.25,0-5.4-.02-10.79-.04-16.19-.05-.73-7.71-.34-15.44-.25-23.16.15.27.31.55.46.82Z"/>
        <path class="cls-11" fill="#f19b41" d="M159.57,125.52c-.03,6.46-.19,12.93-.07,19.39.15,7.85,2.99,10.6,10.89,10.78,4.6.1,9.2,0,13.8,0,0,0,.25-.08.25-.08-.14,2.29-.28,4.59-.42,6.88-1.36,0-2.73-.06-4.09,0-6.54.26-13.1-.6-19.62.47-.28.1-.57.2-.85.3-.26-.1-.52-.2-.78-.3-2.65-.98-5.4-.45-8.09-.41-2.45.03-3.21-.82-3.18-3.23.1-9.8.02-19.6.01-29.4,2.84-4.8,7.24-5.29,12.14-4.39Z"/>
        <path class="cls-2" fill="#f0e7db" d="M184.18,155.68c.04-10.1.07-20.19.11-30.29.47-.11.94-.22,1.4-.33,2.96,1.11,5.91,1.11,8.87,0,.47.11.93.22,1.4.33.04,9.85.08,19.71.13,29.56-.09.23-.18.45-.26.69-3.8-.02-7.59-.03-11.39-.05l-.25.08Z"/>
        <path class="cls-2" fill="#f0e7db" d="M307.46,125.39c.04,10.1.07,20.19.11,30.29,0,0-.25-.08-.25-.08-3.8.02-7.59.03-11.39.05-.08-.23-.16-.46-.26-.69.04-9.85.08-19.71.12-29.57.47-.11.94-.22,1.4-.33,2.96,1.11,5.91,1.11,8.87,0l1.4.33Z"/>
        <path class="cls-8" fill="#efcdb7" d="M57.68,260.51c-7.69.03-15.39.07-23.08.1,0-4.08,0-8.17,0-12.25,7.69.03,15.38.06,23.08.09.26.15.52.29.77.44-2.14,2.2-2.21,8.74-.12,11.13-.22.16-.44.33-.66.49Z"/>
        <path class="cls-8" fill="#efcdb7" d="M57.68,98.89c-7.69.03-15.39.07-23.08.1,0-4.08,0-8.17,0-12.25,7.69.03,15.38.06,23.08.09.26.15.52.29.77.44-2.14,2.2-2.21,8.74-.12,11.13-.22.16-.44.33-.66.49Z"/>
        <path class="cls-8" fill="#efcdb7" d="M34.6,225.9c7.69.03,15.39.07,23.08.1.22.17.44.33.66.49-2.09,2.39-2.02,8.93.11,11.13-.26.15-.52.29-.77.44-7.69.03-15.38.06-23.08.09,0-4.08,0-8.17,0-12.25Z"/>
        <path class="cls-8" fill="#efcdb7" d="M34.6,64.28c7.69.03,15.39.07,23.08.1.22.17.43.33.65.49-2.08,2.4-2.01,8.93.12,11.13-.26.15-.52.29-.77.44-7.69.03-15.38.06-23.08.09,0-4.08,0-8.17,0-12.25Z"/>
        <path class="cls-11" fill="#f19b41" d="M307.57,155.68c12.37.02,24.74.05,37.12.07.01,2.4.03,4.8.04,7.21-.41,0-.82,0-1.23,0-1.22-.91-2.63-.5-3.95-.51-10.62-.04-21.24-.03-31.85-.03-.13-2.27-.25-4.55-.38-6.82l.25.08Z"/>
        <path class="cls-14" fill="#dc523d" d="M34.6,76.53c7.69-.03,15.38-.06,23.08-.09,0,3.46,0,6.92,0,10.39-7.69-.03-15.38-.06-23.08-.09,0-3.4,0-6.8,0-10.2Z"/>
        <path class="cls-14" fill="#dc523d" d="M34.6,238.16c7.69-.03,15.38-.06,23.08-.09,0,3.46,0,6.92,0,10.39-7.69-.03-15.38-.06-23.08-.09,0-3.4,0-6.8,0-10.2Z"/>
        <path class="cls-4" fill="#83b743" d="M315.17,297.86c9.83,0,19.67.01,29.5.02.08,2.39.17,4.77.25,7.16-.5.04-1,.08-1.5.12-1.09-.89-2.39-.51-3.6-.51-8.21-.03-16.42-.01-24.62-.01-.01-2.26-.02-4.51-.03-6.77Z"/>
        <path class="cls-13" fill="#fab058" d="M101.94,63.66c-.1-3.02-.41-6.04.2-9.04.22-.09.39-.04.52.16-.47,2.94.61,6.01-.72,8.88Z"/>
        <path class="cls-8" fill="#efcdb7" d="M306.05,125.07c-2.96,1.11-5.91,1.11-8.87,0,2.96,0,5.91,0,8.87,0Z"/>
        <path class="cls-8" fill="#efcdb7" d="M194.56,125.07c-2.96,1.11-5.91,1.11-8.87,0,2.96,0,5.91,0,8.87,0Z"/>
        <path class="cls-1" fill="#ed5e41" d="M58.34,226.5c-.22-.16-.44-.33-.66-.49,0-42.37,0-84.74,0-127.12.22-.16.44-.33.66-.49,14.26.32,28.52.32,42.78,0,.23.1.47.19.7.29.04.31.08.62.12.93-.04,28.18-.1,56.36-.11,84.54,0,13.72.07,27.43.11,41.15-.04.31-.08.62-.12.92-.23.1-.47.19-.7.29-14.26-.33-28.52-.32-42.78,0Z"/>
        <path class="cls-6" fill="#96bfce" d="M158.68,162.94c.26.1.52.2.78.3,0,23.17,0,46.33.02,69.5,0,1.6.18,3.19.38,4.8.75,6.05,2.57,7.65,9.31,7.81,18.3.42,36.61.12,54.92.18,2.19,0,2.79-.89,2.73-2.9-.11-3.98-.06-7.97-.08-11.95.14-.07.28-.11.43-.14.11,7.48.48,14.97-.24,22.44-5.4.02-10.79.04-16.19.05-3.75,0-7.5,0-11.25,0-3.73,0-7.47,0-11.2,0-3.75,0-7.5,0-11.25,0-5.86.02-11.72.04-17.58.06-4.02-.01-8.04-.02-12.06-.03-1.03-1.18-.6-2.62-.61-3.94-.03-27.36.06-54.72-.11-82.08-.02-3.47,1.06-4.25,4.19-3.98,2.58.22,5.21-.06,7.82-.12Z"/>
        <path class="cls-1" fill="#ed5e41" d="M57.68,260.51c.22-.16.44-.33.66-.49,14.26.32,28.52.32,42.78,0l.7.29c.04.31.08.62.12.93-.06,12.22-.13,24.44-.19,36.66-9.22,0-18.44-.14-27.65.06-3.76.08-7.4-.73-11.11-.88-2.69-.11-5.29-3.59-5.29-6.65-.03-9.96-.01-19.93-.02-29.89Z"/>
        <path class="cls-2" fill="#f0e7db" d="M119.05,177.76c0-10.71-.01-21.42,0-32.14,0-4.39,2.03-6.99,5.44-7.1,3.53-.12,5.77,2.59,5.77,7.14.02,21.42.02,42.85,0,64.27,0,4.39-2.04,6.99-5.44,7.1-3.53.12-5.76-2.6-5.77-7.14-.02-10.71,0-21.42,0-32.14Z"/>
        <path class="cls-4" fill="#83b743" d="M147.38,253.06c4.02.01,8.04.02,12.06.03,0,11.31-.02,22.62.02,33.93.03,7.86,3.03,10.84,10.78,10.85,2.11,0,4.23-.01,6.34-.02.05,2.46.11,4.92.16,7.38-9.74.01-19.47.03-29.21.04-.05-17.41-.09-34.81-.14-52.22Z"/>
        <path class="cls-2" fill="#f0e7db" d="M101.12,260.01c-14.26.33-28.52.32-42.78,0-2.09-2.39-2.02-8.93.11-11.13,14.22.02,28.44.04,42.67.06.15.19.34.31.57.36,0,3.45,0,6.89,0,10.34-.23.06-.43.18-.57.36Z"/>
        <path class="cls-2" fill="#f0e7db" d="M101.12,98.39c-14.26.33-28.52.32-42.78,0-2.09-2.39-2.02-8.93.11-11.13,14.22.02,28.44.04,42.67.06.15.19.34.31.57.36,0,3.44,0,6.89,0,10.34-.23.06-.43.18-.57.36Z"/>
        <path class="cls-2" fill="#f0e7db" d="M58.34,226.5c14.26-.32,28.52-.32,42.78,0,.15.19.34.31.57.36,0,3.45,0,6.89,0,10.34-.23.06-.43.18-.57.36-14.22.02-28.44.04-42.67.06-2.14-2.2-2.21-8.74-.11-11.13Z"/>
        <path class="cls-2" fill="#f0e7db" d="M58.45,76c-2.13-2.2-2.21-8.73-.12-11.13,14.26-.32,28.52-.32,42.79,0,.15.19.34.31.57.36,0,3.45,0,6.89,0,10.34-.23.06-.43.18-.57.36-14.22.02-28.44.04-42.67.06Z"/>
        <path class="cls-1" fill="#ed5e41" d="M58.45,76c14.22-.02,28.44-.04,42.67-.06.23.1.47.19.7.29.04.31.08.62.12.92,0,2.99,0,5.97,0,8.96-.04.31-.08.62-.12.92-.23.1-.47.19-.7.29-14.22-.02-28.44-.04-42.67-.06-.26-.15-.52-.29-.77-.44,0-3.46,0-6.93,0-10.39.26-.15.52-.29.77-.44Z"/>
        <path class="cls-1" fill="#ed5e41" d="M58.45,237.63c14.22-.02,28.44-.04,42.67-.06.23.1.47.19.7.29.04.31.08.62.12.92,0,2.99,0,5.97,0,8.96-.04.31-.08.62-.12.92-.23.1-.47.19-.7.29-14.22-.02-28.44-.04-42.67-.06-.26-.15-.52-.29-.77-.44,0-3.46,0-6.93,0-10.39.26-.15.52-.29.77-.44Z"/>
        <path class="cls-13" fill="#fab058" d="M101.94,225.29c-.04-13.72-.12-27.43-.11-41.15.01-28.18.07-56.36.11-84.54,1.06,1.18.61,2.62.61,3.94.02,39.27.02,78.54,0,117.81,0,1.32.45,2.76-.61,3.94Z"/>
        <path class="cls-13" fill="#fab058" d="M101.76,297.88c.06-12.22.13-24.44.19-36.66,1.06,1.17.61,2.61.61,3.93.03,11.92.11,23.85-.04,35.77-.04,2.96.83,3.81,3.78,3.78,12.17-.15,24.34-.08,36.51-.04,1.31,0,2.76-.48,3.9.66-14.98.01-29.96.03-44.93.04,0-2.49,0-4.98-.01-7.47Z"/>
        <path class="cls-13" fill="#fab058" d="M101.94,86.11c0-2.99,0-5.97,0-8.96,1.01,2.99,1.01,5.97,0,8.96Z"/>
        <path class="cls-13" fill="#fab058" d="M101.94,247.74c0-2.99,0-5.97,0-8.96,1.01,2.99,1.01,5.97,0,8.96Z"/>
        <path class="cls-8" fill="#efcdb7" d="M101.12,98.39c.15-.19.34-.31.57-.36.07.21.11.43.13.65-.23-.1-.47-.19-.7-.29Z"/>
        <path class="cls-8" fill="#efcdb7" d="M101.12,87.32c.23-.1.47-.19.7-.29-.02.22-.06.44-.13.65-.23-.06-.43-.18-.57-.36Z"/>
        <path class="cls-8" fill="#efcdb7" d="M101.82,76.23c-.23-.1-.47-.19-.7-.29.15-.19.34-.31.57-.36.07.21.11.43.13.65Z"/>
        <path class="cls-8" fill="#efcdb7" d="M101.69,65.24c-.23-.06-.43-.18-.57-.36.23-.1.47-.19.7-.29-.02.22-.06.44-.13.65Z"/>
        <path class="cls-8" fill="#efcdb7" d="M101.82,237.85c-.23-.1-.47-.19-.7-.29.15-.19.34-.31.57-.36.07.21.11.43.13.65Z"/>
        <path class="cls-8" fill="#efcdb7" d="M101.12,260.01c.15-.19.34-.31.57-.36.07.21.11.43.13.65-.23-.1-.47-.19-.7-.29Z"/>
        <path class="cls-8" fill="#efcdb7" d="M101.69,226.86c-.23-.06-.43-.18-.57-.36.23-.1.47-.19.7-.29-.02.22-.06.44-.13.65Z"/>
        <path class="cls-8" fill="#efcdb7" d="M101.12,248.95c.23-.1.47-.19.7-.29-.02.22-.06.44-.13.65-.23-.06-.43-.18-.57-.36Z"/>
        <path class="cls-1" fill="#ed5e41" d="M226.91,252.97c.72-7.47.36-14.96.24-22.44.04-6.59.17-13.17.08-19.76-.03-2.29.71-2.98,2.99-2.96,10.44.1,20.88.1,31.33,0,2.31-.02,2.99.74,2.96,2.99-.09,6.34.04,12.68.08,19.01-.09,7.72-.48,15.45.25,23.16-.76,6.2-.12,12.43-.36,18.63-.03.79.44,1.88-.69,2.25-.8.26-1.31-.54-1.87-.99-4.68-3.71-9.41-7.37-13.99-11.21-1.57-1.31-2.58-1.26-4.12.02-4.49,3.75-9.12,7.33-13.71,10.96-.65.52-1.24,1.53-2.14,1.21-1.23-.45-.65-1.72-.68-2.62-.25-6.08.39-12.19-.37-18.26Z"/>
        <path class="cls-4" fill="#83b743" d="M280.74,305.23c-23.25,0-46.49,0-69.74,0,.05-2.46.11-4.92.16-7.38,23.14,0,46.28,0,69.42,0,.05,2.46.11,4.92.16,7.38Z"/>
        <path class="cls-7" fill="#d8d9a8" d="M176.74,305.23c-.05-2.46-.11-4.92-.16-7.38,0,0,.21-.05.21-.05,0,0,.21.03.21.03,3.77,0,7.54,0,11.3,0l.21-.03.21.05-.16,7.38c-3.94,0-7.88,0-11.82,0Z"/>
        <path class="cls-7" fill="#d8d9a8" d="M211.16,297.85c-.05,2.46-.11,4.92-.16,7.38-3.94,0-7.88,0-11.82,0-.05-2.46-.11-4.92-.16-7.38l.21-.05.21.03c3.77,0,7.54,0,11.31,0l.21-.03.21.05Z"/>
        <path class="cls-7" fill="#d8d9a8" d="M315.17,297.86c.01,2.26.02,4.51.03,6.77-.11.18-.17.38-.19.59-3.94,0-7.88.01-11.82.02-.05-2.46-.11-4.92-.16-7.38.13-.08.26-.1.41-.08,3.77.02,7.54.04,11.31.07.14-.05.28-.04.42.02Z"/>
        <path class="cls-7" fill="#d8d9a8" d="M280.74,305.23c-.05-2.46-.11-4.92-.16-7.38,0,0,.21-.05.21-.05,0,0,.21.03.21.03,3.77,0,7.54,0,11.3,0l.21-.03.21.05c-.05,2.46-.11,4.92-.16,7.38-3.94,0-7.88,0-11.82,0Z"/>
        <path class="cls-4" fill="#83b743" d="M199.03,297.85c.05,2.46.11,4.92.16,7.38-3.54,0-7.08,0-10.63,0,.05-2.46.11-4.92.16-7.38,3.44,0,6.87,0,10.31,0Z"/>
        <path class="cls-4" fill="#83b743" d="M292.57,305.24c.05-2.46.11-4.92.16-7.38,3.44,0,6.87,0,10.31,0,.05,2.46.11,4.92.16,7.38-3.54,0-7.08,0-10.63,0Z"/>
        <path class="cls-12" fill="#8dc540" d="M315.01,305.22c.02-.21.09-.41.19-.59,8.21,0,16.42-.02,24.63.01,1.21,0,2.5-.38,3.6.51-9.47.02-18.94.05-28.41.07Z"/>
        <path class="cls-11" fill="#f19b41" d="M295.66,154.96c.09.23.18.45.26.69-.13,2.48-.26,4.95-.39,7.43-33.1,0-66.2,0-99.3,0-.13-2.48-.26-4.95-.39-7.43.08-.23.17-.46.26-.69,33.19,0,66.38,0,99.57,0Z"/>
        <path class="cls-8" fill="#efcdb7" d="M195.83,155.65c.13,2.48.26,4.95.39,7.43-4.05,0-8.11.01-12.16.02.05-.21.04-.41-.04-.61.14-2.29.28-4.59.42-6.88,3.8.02,7.59.03,11.39.05Z"/>
        <path class="cls-8" fill="#efcdb7" d="M295.53,163.07c.13-2.48.26-4.95.39-7.43,3.8-.02,7.6-.03,11.39-.05.13,2.27.25,4.55.38,6.82-.08.22-.1.45-.05.68-4.04,0-8.07-.02-12.11-.03Z"/>
        <path class="cls-13" fill="#fab058" d="M307.64,163.1c-.05-.23-.03-.46.05-.68,10.62,0,21.24,0,31.85.03,1.32,0,2.73-.4,3.95.51-11.95.05-23.9.1-35.85.14Z"/>
        <path class="cls-10" fill="#fec446" d="M184.02,162.48c.08.2.09.41.04.61-7.92-.05-15.83-.1-23.75-.15,6.52-1.07,13.08-.21,19.62-.47,1.36-.05,2.73,0,4.09,0Z"/>
        <path class="cls-2" fill="#f0e7db" d="M314.76,297.84c-3.77-.02-7.54-.04-11.31-.07.02-14.9.03-29.81.05-44.71,3.74-.01,7.49-.03,11.23-.04.01,14.94.02,29.88.03,44.81Z"/>
        <path class="cls-12" fill="#8dc540" d="M281,297.84s-.21-.03-.21-.03c0,0-.21.05-.21.05h-69.42s-.21-.05-.21-.05c0,0-.21.03-.21.03,0-14.94-.02-29.88-.03-44.81,5.4-.02,10.8-.04,16.19-.05.75,6.08.12,12.18.37,18.26.04.9-.55,2.17.68,2.62.91.33,1.49-.69,2.14-1.21,4.59-3.63,9.22-7.22,13.71-10.96,1.54-1.28,2.55-1.34,4.12-.02,4.58,3.84,9.3,7.5,13.99,11.21.56.44,1.07,1.25,1.87.99,1.13-.37.66-1.47.69-2.25.24-6.21-.4-12.43.36-18.63,5.4.02,10.8.04,16.19.05,0,14.94-.02,29.88-.03,44.81Z"/>
        <path class="cls-12" fill="#8dc540" d="M303.5,253.07c-.02,14.9-.03,29.81-.05,44.71-.15-.02-.28,0-.41.08-3.44,0-6.87,0-10.31,0,0,0-.21-.05-.21-.05,0,0-.21.03-.21.03,0-14.94-.02-29.88-.03-44.81,3.74.01,7.48.03,11.22.04Z"/>
        <path class="cls-2" fill="#f0e7db" d="M292.28,253.03c0,14.94.02,29.88.03,44.81-3.77,0-7.54,0-11.3,0,0-14.94.02-29.88.03-44.81,3.75,0,7.5,0,11.25,0Z"/>
        <path class="cls-12" fill="#8dc540" d="M176.99,297.84s-.21-.03-.21-.03c0,0-.21.05-.21.05-2.11,0-4.23.02-6.34.02-7.75-.02-10.75-2.99-10.78-10.85-.04-11.31-.02-22.62-.02-33.93,5.86-.02,11.72-.04,17.58-.06,0,14.94-.02,29.88-.03,44.81Z"/>
        <path class="cls-12" fill="#8dc540" d="M199.03,297.85c-3.44,0-6.87,0-10.31,0,0,0-.21-.05-.21-.05,0,0-.21.03-.21.03,0-14.94-.02-29.88-.03-44.81,3.73,0,7.47,0,11.2,0,0,14.94-.02,29.88-.03,44.81,0,0-.21-.03-.21-.03l-.21.05Z"/>
        <path class="cls-2" fill="#f0e7db" d="M188.27,253.03c0,14.94.02,29.88.03,44.81-3.77,0-7.54,0-11.3,0,0-14.94.02-29.88.03-44.81,3.75,0,7.5,0,11.25,0Z"/>
        <path class="cls-2" fill="#f0e7db" d="M199.44,297.84c0-14.94.02-29.88.03-44.81,3.75,0,7.5,0,11.25,0,.01,14.94.02,29.88.03,44.81-3.77,0-7.54,0-11.3,0Z"/>
        </g>
    </g>
</svg>